<svg xmlns="http://www.w3.org/2000/svg" width="36.887" height="34.077" viewBox="0 0 36.887 34.077"><defs><style>.a{fill:#fff;}</style></defs><g transform="translate(-2.716 -5.194)"><path class="a" d="M19.5,31.661H6.666A4.671,4.671,0,0,1,2,27V8.666A4.671,4.671,0,0,1,6.666,4H32.327a4.671,4.671,0,0,1,4.666,4.666v9.165a1,1,0,0,1-2,0V8.666A2.669,2.669,0,0,0,32.327,6H6.666A2.669,2.669,0,0,0,4,8.666V27a2.669,2.669,0,0,0,2.666,2.666H19.5a1,1,0,0,1,0,2Z" transform="translate(0.716 1.194)"/><path class="a" d="M19.5,19a1,1,0,0,1-.555-.168l-16.5-11A1,1,0,1,1,3.555,6.168L19.5,16.8,35.439,6.168a1,1,0,1,1,1.109,1.664l-16.5,11A1,1,0,0,1,19.5,19Z" transform="translate(0.716 2.86)"/><path class="a" d="M20.667,25.332a4.666,4.666,0,1,1,4.666-4.666A4.671,4.671,0,0,1,20.667,25.332Zm0-7.332a2.666,2.666,0,1,0,2.666,2.666A2.669,2.669,0,0,0,20.667,18Z" transform="translate(12.379 11.19)"/><path class="a" d="M19,19.249a1,1,0,0,1-1-1V15.5a1,1,0,0,1,2,0v2.749A1,1,0,0,1,19,19.249Z" transform="translate(14.045 9.94)"/><path class="a" d="M19,24.749a1,1,0,0,1-1-1V21a1,1,0,0,1,2,0v2.749A1,1,0,0,1,19,24.749Z" transform="translate(14.045 14.522)"/><path class="a" d="M20.734,19.625a1,1,0,0,1-.5-1.866l2.381-1.375a1,1,0,1,1,1,1.732l-2.381,1.375A1,1,0,0,1,20.734,19.625Z" transform="translate(15.487 11.398)"/><path class="a" d="M15.971,22.375a1,1,0,0,1-.5-1.866l2.383-1.375a1,1,0,0,1,1,1.732L16.47,22.241A1,1,0,0,1,15.971,22.375Z" transform="translate(11.52 13.689)"/><path class="a" d="M18.352,19.625a1,1,0,0,1-.5-.134L15.47,18.116a1,1,0,0,1,1-1.732l2.383,1.375a1,1,0,0,1-.5,1.866Z" transform="translate(11.52 11.398)"/><path class="a" d="M23.115,22.375a1,1,0,0,1-.5-.134l-2.383-1.375a1,1,0,0,1,1-1.732l2.383,1.375a1,1,0,0,1-.5,1.866Z" transform="translate(15.487 13.689)"/></g></svg>