<svg xmlns="http://www.w3.org/2000/svg" width="36.887" height="36.887" viewBox="0 0 36.887 36.887"><defs><style>.a{fill:#fffdf7;}</style></defs><g transform="translate(-4.65 -4.65)"><path class="a" d="M10.361,3h21.8a5.367,5.367,0,0,1,5.361,5.361V34.526a5.367,5.367,0,0,1-5.361,5.361h-21.8A5.367,5.367,0,0,1,5,34.526V8.361A5.367,5.367,0,0,1,10.361,3Zm21.8,34.887a3.365,3.365,0,0,0,3.361-3.361V8.361A3.365,3.365,0,0,0,32.165,5h-21.8A3.365,3.365,0,0,0,7,8.361V34.526a3.365,3.365,0,0,0,3.361,3.361Z" transform="translate(4.011 1.65)"/><path class="a" d="M23.083,17H10a1,1,0,0,1,0-2H23.083a1,1,0,0,1,0,2Z" transform="translate(8.732 15.815)"/><path class="a" d="M15.361,18.722a5.361,5.361,0,1,1,5.361-5.361A5.367,5.367,0,0,1,15.361,18.722Zm0-8.722a3.361,3.361,0,1,0,3.361,3.361A3.365,3.365,0,0,0,15.361,10Z" transform="translate(9.913 7.552)"/><path class="a" d="M10.541,9H4A1,1,0,0,1,4,7h6.541a1,1,0,0,1,0,2Z" transform="translate(1.65 6.371)"/><path class="a" d="M10.541,13H4a1,1,0,0,1,0-2h6.541a1,1,0,0,1,0,2Z" transform="translate(1.65 11.093)"/><path class="a" d="M10.541,17H4a1,1,0,0,1,0-2h6.541a1,1,0,0,1,0,2Z" transform="translate(1.65 15.815)"/></g></svg>