<svg xmlns="http://www.w3.org/2000/svg" width="38" height="38" viewBox="0 0 38 38"><defs><style>.a{fill:#eeedee;}.b{fill:#333;}</style></defs><g transform="translate(-1181 -742)"><circle class="a" cx="19" cy="19" r="19" transform="translate(1181 742)"/><g transform="translate(1188 748.33)"><path class="b" d="M8.175,21.422H4a.75.75,0,0,1-.75-.75V16.5a.75.75,0,0,1,.22-.53L14.43,5.006a3.7,3.7,0,1,1,5.236,5.236L8.706,21.2A.75.75,0,0,1,8.175,21.422Zm-3.425-1.5H7.865L18.6,9.181A2.2,2.2,0,0,0,15.49,6.067L4.75,16.807Z" transform="translate(0 0)"/><path class="b" d="M17.5,11.25a.748.748,0,0,1-.53-.22l-4-4A.75.75,0,0,1,14.03,5.97l4,4a.75.75,0,0,1-.53,1.28Z" transform="translate(0.672)"/></g></g></svg>