<svg xmlns="http://www.w3.org/2000/svg" width="44.093" height="44.093" viewBox="0 0 44.093 44.093"><defs><style>.a,.b{fill:none;}.b{stroke:#333;stroke-linecap:round;stroke-linejoin:round;stroke-width:2px;}</style></defs><path class="a" d="M0,0H44.093V44.093H0Z"></path><path class="b" d="M8.674,18.674,5,18.674A3.674,3.674,0,1,0,8.674,15,3.674,3.674,0,0,0,5,18.674" transform="translate(4.186 12.558)"></path><path class="b" d="M18.674,18.674m-3.674,0A3.674,3.674,0,1,0,18.674,15,3.674,3.674,0,0,0,15,18.674" transform="translate(12.558 12.558)"></path><path class="b" d="M7.512,27.046H3.837V19.7M2,5H22.209V27.046m-7.349,0H25.884m7.349,0h3.674V16.023h-14.7m0-9.186H31.4l5.512,9.186" transform="translate(1.674 4.186)"></path><path class="b" d="M3,9h7.349" transform="translate(2.512 7.535)"></path></svg>