<svg xmlns="http://www.w3.org/2000/svg" width="33" height="33" viewBox="0 0 33 33"><defs><style>.a{fill:#fff;}</style></defs><g transform="translate(-2 -2)"><path class="a" d="M12.017,10H12a1,1,0,0,1,0-2h.017a1,1,0,0,1,0,2Z" transform="translate(6.5 4.333)"/><path class="a" d="M14.444,19.889H12.722a1,1,0,0,1-1-1V13H11a1,1,0,0,1,0-2h1.722a1,1,0,0,1,1,1v5.889h.722a1,1,0,0,1,0,2Z" transform="translate(5.778 6.5)"/><path class="a" d="M18.5,2c6.9,0,10.7.983,13.107,3.393S35,11.6,35,18.5s-.983,10.7-3.393,13.107S25.4,35,18.5,35,7.8,34.017,5.393,31.607,2,25.4,2,18.5,2.983,7.8,5.393,5.393,11.6,2,18.5,2Zm0,31a32.656,32.656,0,0,0,7.422-.651,8.692,8.692,0,0,0,4.271-2.156,8.692,8.692,0,0,0,2.156-4.271A32.656,32.656,0,0,0,33,18.5a32.656,32.656,0,0,0-.651-7.421,8.692,8.692,0,0,0-2.156-4.271,8.692,8.692,0,0,0-4.271-2.156A32.656,32.656,0,0,0,18.5,4a32.656,32.656,0,0,0-7.421.651A8.692,8.692,0,0,0,6.807,6.807a8.692,8.692,0,0,0-2.156,4.271A32.656,32.656,0,0,0,4,18.5a32.656,32.656,0,0,0,.651,7.422,8.692,8.692,0,0,0,2.156,4.271,8.692,8.692,0,0,0,4.271,2.156A32.656,32.656,0,0,0,18.5,33Z"/></g></svg>