<svg width="273" height="132" viewBox="0 0 273 132" fill="none" xmlns="http://www.w3.org/2000/svg">
<path d="M40.5402 0.886536C56.5554 0.886536 70.0363 9.18853 76.7693 21.8106L62.8535 29.5566C58.2124 21.48 50.6997 16.3861 40.5402 16.3861C26.8419 16.3861 16.1276 27.7835 16.1276 41.5099C16.1276 55.2364 26.8419 66.6338 40.5402 66.6338C50.6997 66.6338 58.2124 61.5399 62.8535 53.4633L76.7693 61.2093C70.0288 73.8313 56.5554 82.1258 40.5402 82.1258C18.1145 82.1333 0 63.9741 0 41.5099C0 19.0457 18.1145 0.886536 40.5402 0.886536Z" fill="#FFD065"/>
<path d="M131.698 82.0206C115.353 82.0206 104.414 67.8735 104.414 51.5024C104.414 35.1313 115.345 20.9841 131.698 20.9841C137.666 20.9841 142.63 23.208 145.839 26.4762V22.1937H160.969V80.7359H145.839V76.4083C142.637 79.7968 137.666 82.0206 131.698 82.0206ZM133.91 67.4076C139.765 67.4076 143.297 64.7179 145.839 60.9764V41.9157C143.297 38.2943 139.765 35.6046 133.91 35.6046C125.737 35.6046 120.099 42.8548 120.099 51.5024C120.099 60.15 125.73 67.4001 133.91 67.4001V67.4076Z" fill="#FFD065"/>
<path d="M171.151 0H186.281V80.8035H171.151V0Z" fill="#FFD065"/>
<path d="M198.09 17.9338C193.254 17.9338 189.146 13.9143 189.146 8.97065C189.146 4.02702 193.262 0.00750732 198.09 0.00750732C202.919 0.00750732 207.14 4.02702 207.14 8.97065C207.14 13.9143 203.129 17.9338 198.09 17.9338Z" fill="#FFD065"/>
<path d="M82.7974 22.1937H97.9278V80.8035H82.7974V22.1937Z" fill="#FFD065"/>
<path d="M90.31 17.9338C85.474 17.9338 81.3652 13.9143 81.3652 8.97065C81.3652 4.02703 85.474 0 90.31 0C95.1461 0 99.3598 4.01951 99.3598 8.96314C99.3598 13.9068 95.3485 17.9263 90.31 17.9263V17.9338Z" fill="#FFD065"/>
<path d="M247.148 44.8382L241.959 43.2004C237.318 41.9156 236.546 39.9247 236.546 38.1741C236.546 35.4844 239.418 34.1997 242.072 34.1997C245.716 34.1997 248.917 35.9502 251.459 39.3462L261.401 30.8113C257.202 24.38 250.687 20.9916 242.289 20.9916C230.578 20.9916 221.745 27.8887 221.521 38.6474C221.303 47.6482 226.604 54.5452 236.763 57.3551L240.85 58.4069C246.923 60.1575 248.25 61.5624 248.25 64.0192C248.25 66.9418 245.266 68.2266 242.177 68.2266C237.303 68.2266 232.992 66.1454 230.435 62.449L218.926 69.6616C223.68 77.2498 232.46 82.0206 242.169 82.0206C253.986 82.0206 263.155 74.3047 263.155 62.9599C263.155 52.7871 257.082 47.6406 247.14 44.8382H247.148Z" fill="#FFD065"/>
<path d="M202.866 82.0206L215.74 73.9516C210.769 63.9741 205.385 52.727 205.385 39.8646V22.1937H190.27V39.8646C190.27 56.7991 197.22 70.7059 202.799 81.8854L202.866 82.0206Z" fill="#FFD065"/>
<path d="M260.771 17.9789C260.771 14.4627 263.485 11.9684 266.844 11.9684C270.203 11.9684 272.992 14.4627 272.992 17.9789C272.992 21.495 270.241 23.9894 266.844 23.9894C263.448 23.9894 260.771 21.495 260.771 17.9789ZM271.755 17.9789C271.755 15.0262 269.641 13.0277 266.852 13.0277C264.063 13.0277 261.986 15.0337 261.986 17.9789C261.986 20.924 264.063 22.8549 266.852 22.8549C269.641 22.8549 271.755 20.8489 271.755 17.9789ZM264.625 14.3876H267.077C268.396 14.3876 269.303 15.2967 269.303 16.5439C269.303 17.4154 268.891 18.1291 268.171 18.5499L269.828 21.3072H268.321L266.814 18.7753H265.907V21.3072H264.625V14.3876ZM267.039 17.7159C267.601 17.7159 268.021 17.2276 268.021 16.619C268.021 16.0555 267.609 15.5972 267.039 15.5972H265.907V17.7159H267.039Z" fill="#FFD065"/>
<path d="M25.8102 96.0087V100.375H17.1221V128.637H11.7683V100.375H3.0332V96.0087H25.8102Z" fill="white"/>
<path d="M46.1195 128.966C43.0825 128.966 40.2804 128.261 37.7131 126.853C35.1771 125.413 33.1577 123.426 31.6549 120.891C30.1834 118.324 29.4476 115.445 29.4476 112.252C29.4476 109.06 30.1834 106.196 31.6549 103.661C33.1577 101.126 35.1771 99.1542 37.7131 97.7458C40.2804 96.3061 43.0825 95.5862 46.1195 95.5862C49.1877 95.5862 51.9898 96.3061 54.5258 97.7458C57.0931 99.1542 59.1125 101.126 60.584 103.661C62.0555 106.196 62.7913 109.06 62.7913 112.252C62.7913 115.445 62.0555 118.324 60.584 120.891C59.1125 123.426 57.0931 125.413 54.5258 126.853C51.9898 128.261 49.1877 128.966 46.1195 128.966ZM46.1195 124.318C48.2798 124.318 50.2052 123.833 51.8959 122.862C53.5866 121.861 54.9015 120.452 55.8408 118.637C56.8114 116.791 57.2966 114.662 57.2966 112.252C57.2966 109.842 56.8114 107.73 55.8408 105.915C54.9015 104.099 53.5866 102.707 51.8959 101.736C50.2052 100.766 48.2798 100.281 46.1195 100.281C43.9592 100.281 42.0337 100.766 40.343 101.736C38.6524 102.707 37.3217 104.099 36.3512 105.915C35.4119 107.73 34.9423 109.842 34.9423 112.252C34.9423 114.662 35.4119 116.791 36.3512 118.637C37.3217 120.452 38.6524 121.861 40.343 122.862C42.0337 123.833 43.9592 124.318 46.1195 124.318Z" fill="white"/>
<path d="M91.6819 105.398C90.8366 103.771 89.6625 102.55 88.1597 101.736C86.6569 100.891 84.9193 100.469 82.9468 100.469C80.7865 100.469 78.861 100.954 77.1704 101.924C75.4797 102.894 74.1491 104.271 73.1785 106.055C72.2393 107.839 71.7697 109.905 71.7697 112.252C71.7697 114.6 72.2393 116.681 73.1785 118.496C74.1491 120.28 75.4797 121.657 77.1704 122.628C78.861 123.598 80.7865 124.083 82.9468 124.083C85.8585 124.083 88.2223 123.269 90.0382 121.642C91.8541 120.014 92.9656 117.808 93.3726 115.022H81.1153V110.75H99.1021V114.928C98.7577 117.464 97.8497 119.795 96.3782 121.923C94.938 124.052 93.0438 125.757 90.6957 127.041C88.3789 128.293 85.7959 128.919 82.9468 128.919C79.8786 128.919 77.0765 128.214 74.5405 126.806C72.0045 125.366 69.9851 123.379 68.4822 120.844C67.0107 118.309 66.275 115.445 66.275 112.252C66.275 109.06 67.0107 106.196 68.4822 103.661C69.9851 101.126 72.0045 99.1542 74.5405 97.7458C77.1078 96.3061 79.9099 95.5862 82.9468 95.5862C86.4221 95.5862 89.506 96.4469 92.1985 98.1683C94.9224 99.8584 96.8948 102.268 98.1158 105.398H91.6819Z" fill="white"/>
<path d="M109.736 100.328V109.905H121.007V114.271H109.736V124.271H122.416V128.637H104.382V95.9618H122.416V100.328H109.736Z" fill="white"/>
<path d="M150.097 96.0087V100.375H141.409V128.637H136.055V100.375H127.32V96.0087H150.097Z" fill="white"/>
<path d="M181.583 96.0087V128.637H176.229V114.365H160.873V128.637H155.519V96.0087H160.873V109.999H176.229V96.0087H181.583Z" fill="white"/>
<path d="M193.985 100.328V109.905H205.256V114.271H193.985V124.271H206.665V128.637H188.631V95.9618H206.665V100.328H193.985Z" fill="white"/>
<path d="M230.213 128.637L222.699 115.586H218.613V128.637H213.259V96.0087H224.53C227.035 96.0087 229.148 96.4469 230.87 97.3233C232.624 98.1996 233.923 99.3733 234.768 100.844C235.645 102.315 236.083 103.958 236.083 105.774C236.083 107.902 235.457 109.842 234.205 111.595C232.984 113.317 231.09 114.49 228.522 115.116L236.6 128.637H230.213ZM218.613 111.313H224.53C226.534 111.313 228.037 110.813 229.039 109.811C230.072 108.81 230.589 107.464 230.589 105.774C230.589 104.084 230.088 102.769 229.086 101.83C228.084 100.86 226.565 100.375 224.53 100.375H218.613V111.313Z" fill="white"/>
</svg>
