<svg xmlns="http://www.w3.org/2000/svg" width="38" height="38" viewBox="0 0 38 38"><defs><style>.a{fill:#eeedee;}.b{fill:#FDDB00;}.c{fill:#333;}</style></defs><g transform="translate(-1287 -742)"><circle class="a" cx="19" cy="19" r="19" transform="translate(1287 742)"/><g transform="translate(1296 751)"><path class="b" d="M10.013,15.268,5.068,18l.945-5.79-4.006-4.1L7.535,7.27,10.007,2,12.479,7.27l5.528.842L14,12.212,14.946,18Z"/><path class="c" d="M5.068,18.752a.75.75,0,0,1-.74-.871l.884-5.416L1.471,8.636a.75.75,0,0,1,.423-1.266l5.132-.782,2.3-4.905a.75.75,0,0,1,1.358,0l2.3,4.905,5.132.782a.75.75,0,0,1,.423,1.266L14.8,12.465l.884,5.416a.75.75,0,0,1-1.1.777l-4.57-2.532L5.431,18.658A.749.749,0,0,1,5.068,18.752ZM3.565,8.633l2.984,3.055a.75.75,0,0,1,.2.645l-.7,4.265L9.65,14.612a.75.75,0,0,1,.726,0L13.957,16.6l-.7-4.264a.75.75,0,0,1,.2-.645l2.984-3.055-4.083-.622a.75.75,0,0,1-.566-.423L10.007,3.767,8.214,7.588a.75.75,0,0,1-.566.423Z"/></g></g></svg>