<svg xmlns="http://www.w3.org/2000/svg" width="35.274" height="38.481" viewBox="0 0 35.274 38.481"><defs><style>.a{fill:#fff;fill-rule:evenodd;}</style></defs><g transform="translate(-115.366 -383.506)"><path class="a" d="M51.274,48.481A17.447,17.447,0,0,0,33.637,31.231,17.448,17.448,0,0,0,16,48.481h2.714a14.927,14.927,0,0,1,29.846,0Zm-17.637-19.9a9.4,9.4,0,0,0,9.5-9.289,9.5,9.5,0,0,0-19,0,9.4,9.4,0,0,0,9.5,9.289Zm0-2.655a6.636,6.636,0,1,1,6.784-6.635A6.71,6.71,0,0,1,33.637,25.922Z" transform="translate(99.366 373.506)"/></g></svg>