<svg xmlns="http://www.w3.org/2000/svg" width="21.177" height="26.799" viewBox="0 0 21.177 26.799">
  <g id="My_details" data-name="My details" transform="translate(-6.277 -3.466)">
    <path id="Path_209" data-name="Path 209" d="M10.622,5H7.811A2.811,2.811,0,0,0,5,7.811V24.677a2.811,2.811,0,0,0,2.811,2.811H21.866a2.811,2.811,0,0,0,2.811-2.811V7.811A2.811,2.811,0,0,0,21.866,5H19.055" transform="translate(2.027 2.027)" fill="none" stroke="#333" stroke-linecap="round" stroke-linejoin="round" stroke-width="1.5"/>
    <path id="Path_210" data-name="Path 210" d="M9,3,9,5.811A2.811,2.811,0,0,1,11.811,3h2.811a2.811,2.811,0,0,1,2.811,2.811h0a2.811,2.811,0,0,1-2.811,2.811H11.811A2.811,2.811,0,0,1,9,5.811Z" transform="translate(3.649 1.216)" fill="none" stroke="#333" stroke-linecap="round" stroke-linejoin="round" stroke-width="1.5"/>
    <path id="Path_211" data-name="Path 211" d="M9,12h8.433" transform="translate(3.649 4.866)" fill="none" stroke="#333" stroke-linecap="round" stroke-linejoin="round" stroke-width="1.5"/>
    <path id="Path_212" data-name="Path 212" d="M9,16h8.433" transform="translate(3.649 6.488)" fill="none" stroke="#333" stroke-linecap="round" stroke-linejoin="round" stroke-width="1.5"/>
  </g>
</svg>
