<svg xmlns="http://www.w3.org/2000/svg" width="23.644" height="23.895" viewBox="0 0 23.644 23.895">
  <g id="My_security_privacy_icon" data-name="My security &amp; privacy icon" transform="translate(-115.648 -810.267)">
    <path id="Path_106" data-name="Path 106" d="M14.04,3A14.724,14.724,0,0,0,24.47,6.681,14.724,14.724,0,0,1,14.04,25.086,14.724,14.724,0,0,1,3.611,6.681,14.724,14.724,0,0,0,14.04,3" transform="translate(113.43 808.326)" fill="none" stroke="#333" stroke-linecap="round" stroke-linejoin="round" stroke-width="1.5"/>
    <path id="Path_107" data-name="Path 107" d="M12.227,11.227m-1.227,0A1.227,1.227,0,1,0,12.227,10,1.227,1.227,0,0,0,11,11.227" transform="translate(115.243 809.915)" fill="none" stroke="#333" stroke-linecap="round" stroke-linejoin="round" stroke-width="1.5"/>
    <path id="Path_108" data-name="Path 108" d="M12,12v3.068" transform="translate(115.47 810.369)" fill="none" stroke="#333" stroke-linecap="round" stroke-linejoin="round" stroke-width="1.5"/>
  </g>
</svg>
