<svg id="Opella_logo_white" data-name="Opella logo white" xmlns="http://www.w3.org/2000/svg" xmlns:xlink="http://www.w3.org/1999/xlink" width="116" height="32" viewBox="0 0 116 32">
  <defs>
    <style>
      .cls-1 {
        fill: none;
      }

      .cls-2 {
        clip-path: url(#clip-path);
      }

      .cls-3 {
        fill: #fff;
      }
    </style>
    <clipPath id="clip-path">
      <rect id="Rectangle_3013" data-name="Rectangle 3013" class="cls-1" width="116" height="32"></rect>
    </clipPath>
  </defs>
  <g id="Group_4845" data-name="Group 4845" class="cls-2">
    <path id="Path_6851" data-name="Path 6851" class="cls-3" d="M112.783,25.808a3.062,3.062,0,1,0,0-6.122,3.062,3.062,0,1,0,0,6.122M98.015,22.463c-2.021,0-3.27-1-3.27-2.6,0-1.46,1.028-2.314,2.828-2.314h2.609a3.906,3.906,0,0,0,2.278-.534v1.211a4.1,4.1,0,0,1-4.446,4.236M96.362,25.88c2.9,0,5.217-1.139,6.245-3.1a12.552,12.552,0,0,0,.22,2.6h4.849a21.463,21.463,0,0,1-.368-4.592V13.171c0-4.342-2.938-6.764-8.339-6.764-5.18,0-8.486,2.207-8.816,5.909l4.738.356c.22-1.78,1.727-2.847,3.931-2.847,2.241,0,3.673,1.174,3.673,3.061,0,1.067-.551,1.6-1.726,1.6h-4.3c-4.372,0-6.944,1.887-6.944,5.447,0,3.6,2.719,5.945,6.833,5.945m-14.658-.5h5.069V.463H81.7Zm-8.891,0h5.069V.463H72.813ZM55.694,14.275a4.369,4.369,0,0,1,4.666-4.095,4.178,4.178,0,0,1,4.518,4.095Zm-5.107,1.886c0,5.873,4.079,9.682,9.956,9.682,4.739,0,8.046-2.314,9.184-6.087l-4.738-.391A4.3,4.3,0,0,1,60.653,22a4.66,4.66,0,0,1-5-4.592H70.021c.478-6.479-3.379-11-9.552-11-5.768,0-9.883,3.881-9.883,9.754M38.574,10.324c2.9,0,4.629,2.206,4.629,5.8s-1.727,5.8-4.592,5.8c-2.9,0-4.7-2.278-4.7-5.8,0-3.559,1.8-5.8,4.666-5.8M40.3,6.443c-2.865,0-5.253,1.353-6.135,3.417V6.871H29.1v24.74h5.07v-9.22c.882,2.065,3.27,3.382,6.135,3.382,4.813,0,8.157-3.809,8.157-9.648S45.114,6.443,40.3,6.443M26.047,12.887C26.047,5.2,20.83,0,13.006,0,5.143,0,0,5.2,0,12.887c0,7.725,5.143,12.957,13.006,12.957s13.041-5.268,13.041-12.957m-20.5,0c0-5.447,2.939-8.615,7.458-8.615,4.555,0,7.457,3.168,7.457,8.615s-2.9,8.65-7.457,8.65c-4.519,0-7.458-3.2-7.458-8.65"></path>
  </g>
</svg>
