<svg xmlns="http://www.w3.org/2000/svg" width="14.344" height="18.014" viewBox="0 0 14.344 18.014"><defs><style>.a{fill:#FDDB00;}</style></defs><g transform="translate(-4.25 -2.25)"><path class="a" d="M6.835,10.25h9.174a2.588,2.588,0,0,1,2.585,2.585v5.5a2.588,2.588,0,0,1-2.585,2.585H6.835A2.588,2.588,0,0,1,4.25,18.339v-5.5A2.588,2.588,0,0,1,6.835,10.25Zm9.174,9.174a1.086,1.086,0,0,0,1.085-1.085v-5.5a1.086,1.086,0,0,0-1.085-1.085H6.835A1.086,1.086,0,0,0,5.75,12.835v5.5a1.086,1.086,0,0,0,1.085,1.085Z" transform="translate(0 -0.661)"/><path class="a" d="M15.339,11.089a.75.75,0,0,1-.75-.75V6.67a2.92,2.92,0,0,0-5.839,0v3.67a.75.75,0,0,1-1.5,0V6.67a4.42,4.42,0,0,1,8.839,0v3.67A.75.75,0,0,1,15.339,11.089Z" transform="translate(-0.248 0)"/></g></svg>