<svg xmlns="http://www.w3.org/2000/svg" width="31" height="31" viewBox="0 0 31 31"><defs><style>.a{fill:#fff;}</style></defs><g transform="translate(-115 -1183.5)"><path class="a" d="M9.234,16.416A26.089,26.089,0,0,0,20.584,27.766l3.789-3.789a1.712,1.712,0,0,1,1.757-.413,19.645,19.645,0,0,0,6.148.982A1.727,1.727,0,0,1,34,26.267v6.011A1.727,1.727,0,0,1,32.278,34,29.275,29.275,0,0,1,3,4.722,1.727,1.727,0,0,1,4.722,3H10.75a1.727,1.727,0,0,1,1.722,1.722,19.565,19.565,0,0,0,.982,6.148,1.728,1.728,0,0,1-.431,1.757Z" transform="translate(112 1180.5)"/></g></svg>