<svg xmlns="http://www.w3.org/2000/svg" width="37.09" height="37.09" viewBox="0 0 37.09 37.09"><defs><style>.a{fill:#fff;}</style></defs><g transform="translate(-116.394 -650.255)"><path class="a" d="M10.772,31.677a1,1,0,0,1-1-1V21.593L1.485,16.621a1,1,0,0,1,0-1.715l8.772-5.263a1,1,0,0,1,1.029,0l8.772,5.263a1,1,0,0,1,.485.857v9.65a1,1,0,0,1-.485.857l-8.772,5.263A1,1,0,0,1,10.772,31.677ZM3.944,15.763l7.343,4.406a1,1,0,0,1,.486.857v7.884l6.772-4.063V16.33l-7.772-4.663Z" transform="translate(115.394 655.668)"/><path class="a" d="M10.772,29.413a1,1,0,0,1-.514-.143L1.486,24.007A1,1,0,0,1,1,23.15V13.5a1,1,0,0,1,2,0v9.084l8.287,4.972a1,1,0,0,1-.515,1.858Z" transform="translate(115.394 657.932)"/><path class="a" d="M7,19.831a1,1,0,0,1-.519-1.855l8.772-5.316a1,1,0,1,1,1.037,1.71L7.518,19.686A1,1,0,0,1,7,19.831Z" transform="translate(119.167 657.944)"/><path class="a" d="M20.772,31.677a1,1,0,0,1-1-1V21.593l-8.287-4.972a1,1,0,0,1,0-1.715l8.772-5.263a1,1,0,0,1,1.029,0l8.772,5.263a1,1,0,0,1,.486.857v9.65a1,1,0,0,1-.486.857l-8.772,5.263A1,1,0,0,1,20.772,31.677ZM13.944,15.763l7.343,4.406a1,1,0,0,1,.486.857v7.884l6.772-4.063V16.33l-7.772-4.663Z" transform="translate(122.939 655.668)"/><path class="a" d="M20.772,25.264a1,1,0,0,1-.514-.143l-8.772-5.263a1,1,0,0,1,1.029-1.715l8.772,5.263a1,1,0,0,1-.515,1.858Z" transform="translate(122.939 662.082)"/><path class="a" d="M17,19.764a1,1,0,0,1-.515-1.858l8.772-5.263a1,1,0,1,1,1.029,1.715l-8.772,5.263A1,1,0,0,1,17,19.764Z" transform="translate(126.712 657.932)"/><path class="a" d="M15.772,23.177a1,1,0,0,1-1-1V13.093L6.486,8.121a1,1,0,0,1,0-1.715l8.772-5.263a1,1,0,0,1,1.029,0l8.772,5.263a1,1,0,0,1,.486.858v9.65a1,1,0,0,1-2,0V7.83L15.772,3.166l-6.829,4.1,7.343,4.406a1,1,0,0,1,.486.857v9.65A1,1,0,0,1,15.772,23.177Z" transform="translate(119.167 649.255)"/><path class="a" d="M7,15.6a1,1,0,0,1-1-1V5.03a1,1,0,0,1,2,0V14.6A1,1,0,0,1,7,15.6Z" transform="translate(119.167 651.542)"/><path class="a" d="M12,11.264a1,1,0,0,1-.515-1.858l8.772-5.263a1,1,0,1,1,1.029,1.715l-8.772,5.263A1,1,0,0,1,12,11.264Z" transform="translate(122.939 651.519)"/></g></svg>