<svg xmlns="http://www.w3.org/2000/svg" width="42.163" height="42.163" viewBox="0 0 42.163 42.163"><defs><style>.a,.b{fill:none;}.b{stroke:#333;stroke-linecap:round;stroke-linejoin:round;stroke-width:2px;}</style></defs><path class="a" d="M0,0H42.163V42.163H0Z"></path><path class="b" d="M5,14.514A3.514,3.514,0,0,1,8.514,11H26.081a3.514,3.514,0,0,1,3.514,3.514V25.054a3.514,3.514,0,0,1-3.514,3.514H8.514A3.514,3.514,0,0,1,5,25.054Z" transform="translate(3.784 8.324)"></path><path class="b" d="M11,16.757A1.757,1.757,0,1,0,12.757,15,1.757,1.757,0,0,0,11,16.757" transform="translate(8.325 11.352)"></path><path class="b" d="M8,17.054V10.027a7.027,7.027,0,1,1,14.054,0v7.027" transform="translate(6.054 2.27)"></path></svg>