<svg xmlns="http://www.w3.org/2000/svg" width="20" height="10.5" viewBox="0 0 20 10.5"><defs><style>.a{fill:#FDDB00;}</style></defs><path class="a" d="M10,10.5A12.538,12.538,0,0,1,2.929,7.875,18.62,18.62,0,0,1,0,5.25l.006-.008A18.807,18.807,0,0,1,2.929,2.625,12.536,12.536,0,0,1,10,0a12.536,12.536,0,0,1,7.071,2.625A18.631,18.631,0,0,1,20,5.25l-.006.008a18.8,18.8,0,0,1-2.923,2.617A12.537,12.537,0,0,1,10,10.5Zm0-8.4A3.081,3.081,0,0,0,7,5.25,3.081,3.081,0,0,0,10,8.4a3.081,3.081,0,0,0,3-3.15A3.081,3.081,0,0,0,10,2.1Z" transform="translate(0)"/></svg>