<svg xmlns="http://www.w3.org/2000/svg" width="20" height="16" viewBox="0 0 20 16"><defs><style>.a{fill:#969696;}</style></defs><g transform="translate(0 3)"><path class="a" d="M3,14.532l2.085-2.164A15.968,15.968,0,0,1,0,8.3,16.26,16.26,0,0,1,4.739,4.411a11.306,11.306,0,0,1,8.735-.75L17,0l1.414,1.468L4.415,16ZM7,8.3a3.187,3.187,0,0,0,.437,1.622l4.126-4.283A2.9,2.9,0,0,0,10,5.19,3.062,3.062,0,0,0,7,8.3ZM8.508,13.4l1.939-2.013a3.077,3.077,0,0,0,2.52-2.615l3.507-3.641A17.5,17.5,0,0,1,20,8.3,16.275,16.275,0,0,1,15.261,12.2,11.325,11.325,0,0,1,10,13.494,11.352,11.352,0,0,1,8.508,13.4Z" transform="translate(0 -3)"/></g></svg>