<svg xmlns="http://www.w3.org/2000/svg" width="34.444" height="34.53" viewBox="0 0 34.444 34.53"><defs><style>.a{fill:#fff;}</style></defs><g transform="translate(-2.397 -2.243)"><path class="a" d="M15.614,19.842a1,1,0,0,1-.707-.293l-3.614-3.614A1,1,0,0,1,11,15.228V8a1,1,0,1,1,2,0v6.814l3.321,3.321a1,1,0,0,1-.707,1.707Z" transform="translate(7.57 4.438)"/><path class="a" d="M19.214,36.442A17.261,17.261,0,0,1,4.05,27.4V33.79a1,1,0,1,1-2,0V24.755a1,1,0,0,1,.909-1,36.8,36.8,0,0,1,1.2-9.192,20.229,20.229,0,0,1,3.427-7.11A14.235,14.235,0,0,1,19.032,1.913a17.265,17.265,0,1,1,.182,34.529ZM5.456,25.755a15.263,15.263,0,1,0,13.6-21.842A13.126,13.126,0,0,0,13.61,5.1a12.157,12.157,0,0,0-4.45,3.59A18.253,18.253,0,0,0,6.084,15.1a34.765,34.765,0,0,0-1.125,8.654h7.126a1,1,0,0,1,0,2Z" transform="translate(0.347 0.331)"/></g></svg>