<svg xmlns="http://www.w3.org/2000/svg" width="34.623" height="34.623" viewBox="0 0 34.623 34.623"><defs><style>.a{fill:#fff;}</style></defs><g transform="translate(-4.292 -4.292)"><path class="a" d="M24.311,13.156a1,1,0,0,1-1-1V8.078A3.081,3.081,0,0,0,20.233,5H12.078A3.078,3.078,0,0,0,9,8.078v4.078a1,1,0,0,1-2,0V8.078A5.078,5.078,0,0,1,12.078,3h8.156a5.084,5.084,0,0,1,5.078,5.078v4.078A1,1,0,0,1,24.311,13.156Z" transform="translate(5.448 1.292)"/><path class="a" d="M8.078,7H32.545a5.084,5.084,0,0,1,5.078,5.078V28.389a5.084,5.084,0,0,1-5.078,5.078H8.078A5.084,5.084,0,0,1,3,28.389V12.078A5.084,5.084,0,0,1,8.078,7ZM32.545,31.467a3.081,3.081,0,0,0,3.078-3.078V12.078A3.081,3.081,0,0,0,32.545,9H8.078A3.081,3.081,0,0,0,5,12.078V28.389a3.081,3.081,0,0,0,3.078,3.078Z" transform="translate(1.292 5.448)"/><path class="a" d="M18.156,15H10a1,1,0,1,1,0-2h8.156a1,1,0,0,1,0,2Z" transform="translate(7.525 11.681)"/><path class="a" d="M12,21.156a1,1,0,0,1-1-1V12a1,1,0,0,1,2,0v8.156A1,1,0,0,1,12,21.156Z" transform="translate(9.603 9.603)"/></g></svg>